<mxfile host="app.diagrams.net" modified="2023-12-06T15:40:54.412Z" agent="Mozilla/5.0 (Macintosh; Intel Mac OS X 10_15_7) AppleWebKit/537.36 (KHTML, like Gecko) Chrome/119.0.0.0 Safari/537.36" etag="xeme990PCdZ7KgxbfijZ" version="22.1.6" type="device">
  <diagram name="Page-1" id="yPMtE4cVwxzYTg2oFAvs">
    <mxGraphModel dx="1576" dy="883" grid="1" gridSize="10" guides="1" tooltips="1" connect="1" arrows="1" fold="1" page="1" pageScale="1" pageWidth="827" pageHeight="1169" math="0" shadow="0">
      <root>
        <mxCell id="0" />
        <mxCell id="1" parent="0" />
        <mxCell id="_e67KQOrYkO2UEY5Kefi-5" style="edgeStyle=orthogonalEdgeStyle;rounded=0;orthogonalLoop=1;jettySize=auto;html=1;exitX=0.5;exitY=1;exitDx=0;exitDy=0;" edge="1" parent="1" source="_e67KQOrYkO2UEY5Kefi-1" target="_e67KQOrYkO2UEY5Kefi-2">
          <mxGeometry relative="1" as="geometry" />
        </mxCell>
        <mxCell id="_e67KQOrYkO2UEY5Kefi-1" value="Global S" style="rounded=0;whiteSpace=wrap;html=1;" vertex="1" parent="1">
          <mxGeometry x="70" y="430" width="120" height="60" as="geometry" />
        </mxCell>
        <mxCell id="_e67KQOrYkO2UEY5Kefi-6" style="edgeStyle=orthogonalEdgeStyle;rounded=0;orthogonalLoop=1;jettySize=auto;html=1;exitX=1;exitY=0.5;exitDx=0;exitDy=0;" edge="1" parent="1" source="_e67KQOrYkO2UEY5Kefi-2" target="_e67KQOrYkO2UEY5Kefi-3">
          <mxGeometry relative="1" as="geometry" />
        </mxCell>
        <mxCell id="_e67KQOrYkO2UEY5Kefi-2" value="Local S" style="rounded=0;whiteSpace=wrap;html=1;" vertex="1" parent="1">
          <mxGeometry x="70" y="555" width="120" height="60" as="geometry" />
        </mxCell>
        <mxCell id="_e67KQOrYkO2UEY5Kefi-7" style="edgeStyle=orthogonalEdgeStyle;rounded=0;orthogonalLoop=1;jettySize=auto;html=1;exitX=0.5;exitY=0;exitDx=0;exitDy=0;entryX=0.5;entryY=1;entryDx=0;entryDy=0;" edge="1" parent="1" source="_e67KQOrYkO2UEY5Kefi-3" target="_e67KQOrYkO2UEY5Kefi-4">
          <mxGeometry relative="1" as="geometry" />
        </mxCell>
        <mxCell id="_e67KQOrYkO2UEY5Kefi-3" value="Local S&#39;" style="rounded=0;whiteSpace=wrap;html=1;" vertex="1" parent="1">
          <mxGeometry x="370" y="555" width="120" height="60" as="geometry" />
        </mxCell>
        <mxCell id="_e67KQOrYkO2UEY5Kefi-4" value="Global S&#39;" style="rounded=0;whiteSpace=wrap;html=1;" vertex="1" parent="1">
          <mxGeometry x="370" y="430" width="120" height="60" as="geometry" />
        </mxCell>
        <mxCell id="_e67KQOrYkO2UEY5Kefi-8" value="Effectful context" style="text;html=1;strokeColor=none;fillColor=none;align=center;verticalAlign=middle;whiteSpace=wrap;rounded=0;" vertex="1" parent="1">
          <mxGeometry x="130" y="500" width="60" height="30" as="geometry" />
        </mxCell>
        <mxCell id="_e67KQOrYkO2UEY5Kefi-9" value="Effectful context" style="text;html=1;strokeColor=none;fillColor=none;align=center;verticalAlign=middle;whiteSpace=wrap;rounded=0;" vertex="1" parent="1">
          <mxGeometry x="360" y="500" width="60" height="30" as="geometry" />
        </mxCell>
        <mxCell id="_e67KQOrYkO2UEY5Kefi-11" value="Pure context" style="text;html=1;strokeColor=none;fillColor=none;align=center;verticalAlign=middle;whiteSpace=wrap;rounded=0;" vertex="1" parent="1">
          <mxGeometry x="240" y="550" width="60" height="30" as="geometry" />
        </mxCell>
      </root>
    </mxGraphModel>
  </diagram>
</mxfile>
